<?xml version="1.0" encoding="UTF-8" standalone="no"?>
<!-- Generator: Adobe Illustrator 18.0.0, SVG Export Plug-In . SVG Version: 6.00 Build 0)  -->

<svg
   xmlns:dc="http://purl.org/dc/elements/1.1/"
   xmlns:cc="http://creativecommons.org/ns#"
   xmlns:rdf="http://www.w3.org/1999/02/22-rdf-syntax-ns#"
   xmlns:svg="http://www.w3.org/2000/svg"
   xmlns="http://www.w3.org/2000/svg"
   xmlns:sodipodi="http://sodipodi.sourceforge.net/DTD/sodipodi-0.dtd"
   xmlns:inkscape="http://www.inkscape.org/namespaces/inkscape"
   version="1.1"
   id="Bernie_2016"
   x="0px"
   y="0px"
   viewBox="0 0 1000 665.15997"
   enable-background="new 0 0 1000 1000"
   xml:space="preserve"
   inkscape:version="0.91 r13725"
   sodipodi:docname="Bernie2016inverted.svg"
   width="1000"
   height="665.15997"><metadata
     id="metadata26"><rdf:RDF><cc:Work
         rdf:about=""><dc:format>image/svg+xml</dc:format><dc:type
           rdf:resource="http://purl.org/dc/dcmitype/StillImage" /><dc:title></dc:title></cc:Work></rdf:RDF></metadata><defs
     id="defs24"><clipPath
       clipPathUnits="userSpaceOnUse"
       id="clipPath3383"><rect
         style="fill:#ffffff"
         id="rect3385"
         width="1131.9512"
         height="635.5921"
         x="-47.033981"
         y="76.613045" /></clipPath><clipPath
       clipPathUnits="userSpaceOnUse"
       id="clipPath3387"><rect
         style="fill:#ffffff"
         id="rect3389"
         width="1081.6337"
         height="665.15979"
         x="-44.943226"
         y="80.177078" /></clipPath><clipPath
       clipPathUnits="userSpaceOnUse"
       id="clipPath3391"><rect
         style="fill:#ffffff"
         id="rect3393"
         width="1081.6337"
         height="665.15979"
         x="-44.943226"
         y="80.177078" /></clipPath><clipPath
       clipPathUnits="userSpaceOnUse"
       id="clipPath3395"><rect
         style="fill:#ffffff"
         id="rect3397"
         width="1081.6337"
         height="665.15979"
         x="-44.943226"
         y="80.177078" /></clipPath><clipPath
       clipPathUnits="userSpaceOnUse"
       id="clipPath3399"><rect
         style="fill:#ffffff"
         id="rect3401"
         width="1081.6337"
         height="665.15979"
         x="-44.943226"
         y="80.177078" /></clipPath><clipPath
       clipPathUnits="userSpaceOnUse"
       id="clipPath3403"><rect
         style="fill:#ffffff"
         id="rect3405"
         width="1081.6337"
         height="665.15979"
         x="-44.943226"
         y="80.177078" /></clipPath><clipPath
       clipPathUnits="userSpaceOnUse"
       id="clipPath3407"><rect
         style="fill:#ffffff"
         id="rect3409"
         width="1081.6337"
         height="665.15979"
         x="-44.943226"
         y="80.177078" /></clipPath></defs><sodipodi:namedview
     pagecolor="#ffffff"
     bordercolor="#666666"
     borderopacity="1"
     objecttolerance="10"
     gridtolerance="10"
     guidetolerance="10"
     inkscape:pageopacity="0"
     inkscape:pageshadow="2"
     inkscape:window-width="797"
     inkscape:window-height="608"
     id="namedview22"
     showgrid="false"
     inkscape:zoom="0.3337544"
     inkscape:cx="381.53668"
     inkscape:cy="480.59484"
     inkscape:window-x="898"
     inkscape:window-y="296"
     inkscape:window-maximized="0"
     inkscape:current-layer="Bernie_2016"
     inkscape:snap-bbox="false"
     inkscape:snap-bbox-edge-midpoints="false"
     inkscape:bbox-nodes="false"
     inkscape:bbox-paths="true"
     inkscape:snap-object-midpoints="false" /><rect
     id="BG"
     y="24.569719"
     width="1000"
     height="735.13306"
     x="0"
     style="fill:#087ed7"
     clip-path="url(#clipPath3407)"
     transform="translate(0,-80.176895)" /><g
     id="_x2D_2016-"
     clip-path="url(#clipPath3403)"
     transform="translate(0,-80.176895)"><rect
       id="right_-"
       x="646.20001"
       y="668.40002"
       width="299.79999"
       height="6.1999998"
       style="fill:#ffffff" /><rect
       id="left_-"
       x="54"
       y="668.40002"
       width="299.79999"
       height="6.1999998"
       style="fill:#ffffff" /><g
       id="_x32_016"><path
         id="two"
         d="m 387,704.8 -0.4,-13 c 5.6,-5.4 10.4,-9.8 14.4,-13.6 4,-3.8 7.2,-7 10,-9.8 2.8,-3 4.6,-5.4 5.8,-8 1.2,-2.2 1.8,-4.8 1.8,-7.6 0,-2.8 -0.8,-5 -2.8,-6.8 -2,-1.8 -4.4,-2.8 -7.2,-2.8 -2.8,0 -5.8,0.6 -8.8,2 -3,1.2 -5.4,3 -7.8,5 l -5.6,-13.4 c 3.2,-2.6 6.8,-4.6 11.2,-6.2 4.4,-1.6 9,-2.6 14,-2.6 4.2,0 7.8,0.6 10.8,1.6 3.2,1 5.6,2.8 8,4.6 2,1.8 3.8,4.4 4.8,6.8 1,2.8 1.6,5.4 1.6,8.6 0,3.2 -0.6,6.2 -1.8,9.2 -1.2,3 -3.2,6 -5.6,9 -2.6,3.2 -5.6,6.2 -9.4,9.6 -3.8,3.4 -8.2,7.2 -13.2,11.4 l 31.4,0 0.4,15 -51.8,0 0.2,1 0,0 z"
         inkscape:connector-curvature="0"
         style="fill:#ffffff" /><path
         id="zero"
         d="m 500.4,667.6 c 0,12.6 -2.2,22 -7,29 -4.8,7 -11.6,10.2 -20.6,10.2 -9,0 -15.8,-3.4 -20.2,-10 -4.4,-6.6 -6.6,-16.2 -6.6,-28.8 0,-12.6 2.2,-22.2 7,-29 4.8,-6.6 11.4,-10.2 20.4,-10.2 9,0 15.8,3.4 20.2,10 4.8,6.6 6.8,16.2 6.8,28.8 z m -16.6,0.4 c 0,-5 -0.2,-9.4 -0.8,-12.8 -0.6,-3.4 -1.2,-6 -2.2,-8 -1,-1.8 -2,-3.4 -3.4,-4.2 -1.2,-0.8 -2.8,-1.2 -4.2,-1.2 -1.4,0 -2.8,0.4 -4,1.2 -1.2,0.8 -2.2,2 -3.4,4.2 -0.8,1.8 -1.6,4.6 -2.2,8 -0.6,3.4 -0.8,7.6 -0.8,12.6 0,5 0.2,9 0.8,12.2 0.6,3.4 1.4,5.8 2.2,8 1,1.8 2,3.4 3.4,4.2 1.2,0.8 2.8,1.2 4.2,1.2 1.4,0 2.8,-0.4 4,-1.2 1.2,-0.8 2.2,-2 3.4,-4 0.8,-1.8 1.6,-4.6 2,-7.8 0.8,-3.6 1,-7.4 1,-12.4 z"
         inkscape:connector-curvature="0"
         style="fill:#ffffff" /><path
         id="one"
         d="m 525.8,648.2 -17,3.6 -0.4,-15.4 36,-7.2 0,75.8 -18.6,0 0,-56.8 0,0 z"
         inkscape:connector-curvature="0"
         style="fill:#ffffff" /><path
         id="six"
         d="m 558.6,673.6 c 0,-5.6 1,-10.8 3,-16 1.8,-5 4.8,-9.6 8.6,-13.8 3.8,-4.2 8.4,-7.6 13.8,-10.2 5.4,-2.8 11.4,-4.8 18.4,-5.8 l 4,13.4 c -7.8,1.4 -14.4,4 -19.8,7.8 -5.4,3.8 -8.8,8.6 -10.4,14.4 l 0.4,0.4 c 2.2,-1.8 5,-3.6 7.8,-4.8 3,-1.4 5.8,-2 9.4,-2 3,0 5.4,0.6 8,1.6 2.6,1 4.6,2.6 6.4,4.6 1.8,1.8 3.4,4.4 4.4,7 1,2.8 1.6,6 1.6,9.6 0,3.8 -0.6,7.2 -1.8,10.6 -1.2,3.4 -3,6.2 -5.2,8.8 -2.2,2.6 -5.2,4.4 -8.6,5.8 -3.4,1.4 -7.2,2 -11.6,2 -4.4,0 -8.4,-0.8 -11.8,-2.6 -3.4,-1.8 -6.4,-4 -8.8,-6.8 -2.4,-2.8 -4.2,-6.4 -5.4,-10.4 -1.8,-4.4 -2.4,-8.8 -2.4,-13.6 z m 17.2,5.4 c 0,1.8 0.2,3.8 0.6,5.4 0.4,1.6 1,3.4 2,4.6 0.8,1.2 2,2.2 3.6,3.2 1.4,0.8 3,1.2 4.8,1.2 3,0 5.4,-1 7.2,-3.4 1.8,-2.4 2.8,-5.2 2.8,-9.2 0,-3.6 -0.8,-6.2 -2.8,-8.2 -1.8,-2 -4.2,-3 -7.2,-3 -2,0 -4.2,0.4 -6,1.4 -1.8,0.8 -3.4,1.8 -4.4,3 -0.4,1.6 -0.6,3.2 -0.6,5 z"
         inkscape:connector-curvature="0"
         style="fill:#ffffff" /></g></g><path
     id="bottom_swoosh"
     d="m 1000,596.8 c 0,0 -3.8,-0.8 -10.6,-2.2 -3.6,-0.8 -7.8,-1.4 -12.8,-2.6 -5,-0.8 -10.8,-1.8 -17.2,-3 -13,-2.2 -28.8,-4.2 -46.8,-6.2 -18,-2 -38.8,-3.8 -61,-5 -22.2,-1.2 -46.6,-2 -72.2,-2.8 -13,-0.2 -26,-0.2 -39.6,-0.2 -13.6,0 -27.2,0.2 -41.2,0.4 -28,0.6 -56.8,1.4 -86.2,3.2 -29.4,1.4 -59.2,3.4 -89,5.6 -15,1.2 -29.8,2.6 -44.6,3.8 -14.8,1.2 -29.6,2.8 -44.4,4.2 -7.2,0.8 -14.6,1.4 -21.8,2.2 -7.2,0.8 -14.4,1.4 -21.6,2.2 -7.2,0.8 -14.4,1.6 -21.4,2.6 -7,0.8 -14.2,1.6 -21.2,2.2 -28.2,2.8 -55.4,4.8 -81.2,5.6 -13,0.4 -25.6,0.8 -37.8,0.8 -12.2,0.2 -24,0 -35.2,-0.2 -22.8,-0.6 -43.4,-2 -61.6,-4 -18.4,-2.2 -34.4,-4.8 -47.2,-8.2 -6.4,-1.6 -12.2,-3.4 -17.2,-5 -5,-1.6 -9.2,-3.6 -12.4,-5 -3.4,-1.6 -5.8,-3 -7.2,-4 -1.6,-1 -2.6,-1.6 -2.6,-1.6 0,0 0.8,0.4 2.8,1 1.6,0.6 4.4,1.4 7.8,2.6 3.4,0.8 7.8,1.8 12.8,2.4 5,0.8 10.8,1.4 17.2,2 6.4,0.4 13.8,0.8 21.4,1 8,0.2 16.2,0.2 25.4,0.2 18.2,-0.2 38.8,-1 61,-2.2 11.2,-0.6 22.8,-1.4 34.8,-2.6 12,-1 24.6,-2 37.2,-3.2 25.6,-2.2 52.6,-5.2 80.4,-8.6 14,-1.6 28.2,-3.4 42.6,-5.2 14.4,-1.6 29.2,-3.4 43.8,-4.6 14.8,-1.4 29.6,-2.8 44.6,-4 15,-1.2 30,-2.2 45,-3.2 30,-1.8 60.2,-3.2 89.8,-3.8 29.6,-0.6 58.8,-0.6 87,0 14.2,0.4 28,0.8 41.6,1.4 13.6,0.6 26.8,1.4 39.8,2.6 25.8,1.8 50.2,4.4 72.8,7.2 22.6,3.2 43,6.4 61,10 18.2,3.6 33.8,7.2 46.6,10.8 6.4,1.6 12,3.6 17,5 5,1.6 9.2,3 12.6,4 5.4,3.2 9,4.4 9,4.4 z"
     clip-path="url(#clipPath3399)"
     inkscape:connector-curvature="0"
     style="fill:#ea504e"
     transform="translate(0,-80.176895)" /><g
     id="Bernie"
     clip-path="url(#clipPath3395)"
     transform="translate(0,-80.176895)"><path
       id="b"
       d="m 230.6,470.4 c 0,-28.6 -16,-44.8 -49.4,-49.6 27.8,-6 41,-21 41,-45 0,-35.8 -22.2,-50.2 -78.2,-50.2 l -90,0 0,22.6 15.4,0 c 4.4,0 5.8,2 5.8,8.4 l 0,137.2 c 0,6.2 -1.4,8.8 -5.8,8.8 l -15.4,0 0,22.6 89.8,0 c 60.6,0 86.8,-16.4 86.8,-54.8 z m -113,-122.2 25.4,0 c 26,0 35.2,8.4 35.2,32.8 0,23 -12,32.6 -37,32.6 l -23.6,0 0,-65.4 z m 0,84.8 30,0 c 26.2,0 38,9.6 38,35.4 0,25 -10.8,34.2 -39.8,34.2 l -28.2,0 c 0,0 0,-69.6 0,-69.6 z"
       inkscape:connector-curvature="0"
       style="fill:#ffffff" /><path
       id="e1"
       d="m 388.2,445 c 0,-53 -26.2,-84.6 -73.8,-84.6 l 0,0 0,0 c -46.2,0 -78.2,34.2 -78.2,84.2 l 0,0 c 0,1.4 0,2.7 0.1,4.1 0,0.4 0,0.9 0.1,1.3 0,0.9 0.1,1.9 0.1,2.8 0,0.5 0.1,1 0.1,1.5 0.1,0.9 0.1,1.8 0.2,2.7 0,0.5 0.1,0.9 0.1,1.4 0.1,1.1 0.3,2.3 0.4,3.4 0,0.2 0.1,0.4 0.1,0.6 0.2,1.2 0.4,2.4 0.6,3.6 0.1,0.4 0.2,0.9 0.3,1.3 0.2,0.8 0.3,1.6 0.5,2.4 0.1,0.5 0.2,0.9 0.3,1.4 0.2,0.8 0.4,1.6 0.6,2.4 0.1,0.4 0.2,0.8 0.3,1.2 0.3,1.1 0.6,2.2 1,3.2 0,0.1 0.1,0.2 0.1,0.3 0.4,1.2 0.8,2.3 1.2,3.5 0.1,0.3 0.2,0.5 0.3,0.8 0.3,0.9 0.7,1.8 1.1,2.7 0.1,0.3 0.2,0.6 0.4,0.8 0.4,0.9 0.8,1.8 1.3,2.7 0.1,0.2 0.2,0.3 0.2,0.5 8.3,16.8 22.2,29.3 41.6,35.6 l 0.7,0.1 c 7.2,2.3 15.3,3.7 24,4.1 l 0.9,0.1 c 1.8,0 3.8,0.2 5.6,0.2 11.3,0 21,-1.7 29.4,-4.8 20.6,-7.4 32.6,-23 38.4,-41.2 L 362.6,472 c -0.9,2.4 -1.8,4.7 -2.9,6.9 -1.1,2.2 -2.2,4.2 -3.4,6.1 -0.6,0.9 -1.3,1.9 -1.9,2.7 -0.7,0.9 -1.4,1.7 -2.1,2.5 -0.4,0.4 -0.7,0.8 -1.1,1.2 -2.2,2.3 -4.7,4.3 -7.5,5.9 -0.5,0.3 -0.9,0.5 -1.4,0.8 -0.9,0.5 -1.9,1 -2.9,1.4 -2,0.8 -4.2,1.5 -6.4,2.1 -1.1,0.3 -2.3,0.5 -3.5,0.7 -1.2,0.2 -2.4,0.3 -3.7,0.4 -1.3,0.1 -2.6,0.1 -3.9,0.1 -17.6,0 -29.6,-7.7 -36.4,-20.8 -1,-2 -1.9,-4 -2.7,-6.2 -0.3,-0.7 -0.5,-1.5 -0.7,-2.2 -0.5,-1.5 -0.9,-3.1 -1.3,-4.7 -0.2,-0.8 -0.4,-1.6 -0.5,-2.4 -0.8,-4.1 -1.3,-8.5 -1.4,-13.2 l 109.4,0 0,0 0,0 0,-8.3 -0.1,0 z m -41.6,-14 -68,0 c 2,-31.4 14.4,-45 36.2,-45 21.8,0 31.2,12.6 31.8,45 z"
       inkscape:connector-curvature="0"
       style="fill:#ffffff" /><path
       id="r"
       d="m 412,399.4 0,92.2 c 0,7.6 -1.8,8.6 -5.2,8.6 l -13.6,0 0,25 80,0 0,-24.6 -14.6,0 c -3.4,0 -5.2,-1 -5.2,-8.6 l 0,-50.4 c 0,-33.6 10.4,-53.6 30.8,-53.6 4.6,0 8.2,1.2 10.2,3.4 -9.2,3 -14.8,12 -14.8,21 0,11.8 9.6,21.6 21,21.6 17.8,0 29.4,-13.8 29.4,-34.6 0,-23.8 -14,-38.8 -36,-38.8 -18,0 -33.8,10.6 -40.8,36.2 l 0,-35.2 c -7,1.6 -21,3.4 -36,3.4 l -25,0 0,24.6 14.6,0 c 4,0 5.2,1.8 5.2,9.8 z"
       inkscape:connector-curvature="0"
       style="fill:#ffffff" /><path
       id="n"
       d="m 535,390.2 9.8,0 c 4,0 5.2,1.8 5.2,9.8 l 0,92 c 0,7.6 -1.8,8.6 -5.2,8.6 l -13.6,0 0,24.6 78.4,0 0,-24.6 -12,0 c -3.4,0 -5.2,-1 -5.2,-8.6 l 0,-50 c 0,-35.8 12,-52.2 32.8,-52.2 17,0 24.8,9.6 24.8,31.8 l 0,70.4 c 0,7.6 -1.8,8.6 -5.2,8.6 l -12,0 0,24.6 77.2,0 0,-24.6 -13.6,0 c -3.4,0 -5.2,-1 -5.2,-8.6 l 0,-71.4 c 0,-40 -17,-59.8 -48.8,-59.8 -24.2,0 -41.4,10.8 -51,33 l 0,-31.8 c -6.8,1.6 -20.6,3.4 -35.8,3.4 l -35.2,0 c 8.2,3.8 13.8,18.2 14.6,24.8 z"
       inkscape:connector-curvature="0"
       style="fill:#ffffff" /><polygon
       id="star"
       points="779,315.6 754.6,315.6 746.8,291.6 739.4,315.6 715,315.6 734.8,330.4 727,354.4 746.8,339.6 766.6,354.4 759.2,330.4 "
       style="fill:#ffffff" /><path
       id="i"
       d="m 728.8,500.6 -14,0 0,24.6 79,0 0,-25 -13,0 c -3.4,0 -5,-1.6 -5,-8.6 l 0,-130 c -7,1.6 -21,3.4 -36,3.4 l -24.8,0 0,24.6 12,0 c 5.2,0 6.8,3 6.8,13.2 l 0,89.2 c 0,6.8 -1.4,8.6 -5,8.6 z"
       inkscape:connector-curvature="0"
       style="fill:#ffffff" /><path
       id="e2"
       d="m 946.2,445.2 c 0,-53 -26.2,-84.6 -73.8,-84.6 l 0,0 0,0 c -46.2,0 -78.2,34.2 -78.2,84.2 l 0,0 c 0,1.4 0,2.7 0.1,4.1 0,0.4 0,0.9 0.1,1.3 0,0.9 0.1,1.9 0.1,2.8 0,0.5 0.1,1 0.1,1.5 0.1,0.9 0.1,1.8 0.2,2.7 0,0.5 0.1,0.9 0.1,1.4 0.1,1.1 0.3,2.3 0.4,3.4 0,0.2 0.1,0.4 0.1,0.6 0.2,1.2 0.4,2.4 0.6,3.6 0.1,0.4 0.2,0.9 0.3,1.3 0.2,0.8 0.3,1.6 0.5,2.4 0.1,0.5 0.2,0.9 0.3,1.4 0.2,0.8 0.4,1.6 0.6,2.4 0.1,0.4 0.2,0.8 0.3,1.2 0.3,1.1 0.6,2.2 1,3.2 0,0.1 0.1,0.2 0.1,0.3 0.4,1.2 0.8,2.3 1.2,3.5 0.1,0.3 0.2,0.5 0.3,0.8 0.3,0.9 0.7,1.8 1.1,2.7 0.1,0.3 0.2,0.6 0.4,0.8 0.4,0.9 0.8,1.8 1.3,2.7 0.1,0.2 0.2,0.3 0.2,0.5 8.3,16.8 22.2,29.3 41.6,35.6 l 0.7,0.1 c 7.2,2.3 15.3,3.7 24,4.1 l 0.9,0.1 c 1.8,0 3.8,0.2 5.6,0.2 11.3,0 21,-1.7 29.4,-4.8 20.6,-7.4 32.6,-23 38.4,-41.2 l -23.6,-11.2 c -0.9,2.4 -1.8,4.7 -2.9,6.9 -1.1,2.2 -2.2,4.2 -3.4,6.1 -0.6,0.9 -1.3,1.9 -1.9,2.7 -0.7,0.9 -1.4,1.7 -2.1,2.5 -0.4,0.4 -0.7,0.8 -1.1,1.2 -2.2,2.3 -4.7,4.3 -7.5,5.9 -0.5,0.3 -0.9,0.5 -1.4,0.8 -0.9,0.5 -1.9,1 -2.9,1.4 -2,0.8 -4.2,1.5 -6.4,2.1 -1.1,0.3 -2.3,0.5 -3.5,0.7 -1.2,0.2 -2.4,0.3 -3.7,0.4 -1.3,0.1 -2.6,0.1 -3.9,0.1 -17.6,0 -29.6,-7.7 -36.4,-20.8 -1,-2 -1.9,-4 -2.7,-6.2 -0.3,-0.7 -0.5,-1.5 -0.7,-2.2 -0.5,-1.5 -0.9,-3.1 -1.3,-4.7 -0.2,-0.8 -0.4,-1.6 -0.5,-2.4 -0.8,-4.1 -1.3,-8.5 -1.4,-13.2 l 109.4,0 0,0 0,0 -0.1,-8.4 0,0 z m -41.6,-14 -68,0 c 2,-31.4 14.4,-45 36.2,-45 21.8,0 31.2,12.6 31.8,45 z"
       inkscape:connector-curvature="0"
       style="fill:#ffffff" /></g><path
     id="top_swoosh"
     d="m 393.2,520.4 c -2.2,0.2 -4.6,0.4 -6.8,0.6 -14.2,1.4 -28.4,3 -42.2,4.6 m 288.6,-16.4 c -7.8,0 -15.6,0 -23.2,0 l -78.4,1.8 c -18.6,0.6 -37,1.6 -55.8,3 -0.8,0 -1.4,0.2 -2.2,0.2 0,0 -69.2,3.8 -157.8,14.8 -5.2,0.6 -10.2,1.2 -15.4,1.8 -14,1.6 -27.6,3.2 -41,4.6 -13.4,1.4 -26.4,2.8 -39.4,3.8 -25.6,2 -49.8,4.2 -72,5 -11.2,0.4 -21.8,1 -32,1.2 -10.2,0.2 -19.6,0.6 -28.8,0.6 -9.2,0 -17.6,-0.2 -25.4,-0.4 -8,-0.4 -15,-0.8 -21.4,-1.4 C 27,543 16.8,540.8 10.2,539 6.8,538 4.2,537.2 2.4,536.2 0.8,535.8 0,535.4 0,535.4 c 0,0 0.8,0.6 2.6,1.4 1.6,1 4.2,2.2 7.6,3.8 3.4,1.6 7.4,3.2 12.6,4.8 5.2,1.6 10.6,3.2 17.2,4.6 13,3 29,5.2 47.2,7.2 18.4,1.6 39,3 61.6,3.2 22.6,0.2 47,0 73,-1.2 26,-1.2 53,-3.2 81,-6 14.2,-1.4 28.4,-3.2 42.6,-4.8 7,-0.8 14.4,-1.6 21.6,-2.2 7.2,-0.8 14.6,-1.4 21.8,-2.2 29.4,-3 59.2,-5.6 88.8,-8 29.8,-2.2 59.6,-4.4 89,-5.6 29.4,-1.4 58.4,-2.2 86.2,-2.8 27.8,-0.6 55,-0.2 80.6,0.2 25.6,0.4 50,1.4 72.2,3.2 22.2,1.4 43,3.4 61,5.4 18.2,2 34,4.4 46.8,6.6 6.4,1 12.2,2.2 17.2,3.2 5,1 9.2,1.8 12.8,2.8 6.8,1.6 10.6,2.6 10.6,2.6 0,0 -4,-2 -10.6,-4.4 -3.4,-1 -7.6,-2.2 -12.6,-3.8 -5,-1.4 -10.6,-3.2 -17,-4.6 -11.8,-3.2 -39.2,-9.4 -37.4,-9.4 l -31.2,-4.6 C 833,523 820,521 806,519.2 c -4,-0.4 -8.2,-1 -12.2,-1.4 0,0 -34.3,-4.4 -79,-6.2 -1.4,0 -3.2,-0.2 -4.8,-0.2"
     clip-path="url(#clipPath3391)"
     inkscape:connector-curvature="0"
     style="fill:#ffffff"
     transform="translate(0,-80.176895)" /><text
     xml:space="preserve"
     style="font-style:normal;font-weight:normal;font-size:40px;line-height:125%;font-family:sans-serif;letter-spacing:0px;word-spacing:0px;fill:#000000;fill-opacity:1;stroke:none;stroke-width:1px;stroke-linecap:butt;stroke-linejoin:miter;stroke-opacity:1"
     x="119.84861"
     y="188.0257"
     id="text3354"
     sodipodi:linespacing="125%"
     clip-path="url(#clipPath3387)"
     transform="translate(0,-334.84)"><tspan
       sodipodi:role="line"
       id="tspan3356"
       x="119.84861"
       y="188.0257" /></text>
<text
     xml:space="preserve"
     style="font-style:normal;font-variant:normal;font-weight:bold;font-stretch:normal;font-size:242.20587158px;line-height:125%;font-family:Jubilat;-inkscape-font-specification:'Jubilat Bold';letter-spacing:17.35807037px;word-spacing:0px;fill:#ffffff;fill-opacity:1;stroke:none;stroke-width:1px;stroke-linecap:butt;stroke-linejoin:miter;stroke-opacity:1"
     x="199.37631"
     y="266.61905"
     id="text3353"
     sodipodi:linespacing="125%"
     transform="matrix(0.95554801,0,0,1.0465199,0,-80.176895)"
     clip-path="url(#clipPath3383)"><tspan
       sodipodi:role="line"
       id="tspan3355"
       x="199.37631"
       y="266.61905">Elect</tspan></text>
<rect
     transform="translate(0,-80.176895)"
     clip-path="url(#clipPath3407)"
     style="fill:#087ed7"
     x="0"
     height="735.13306"
     width="1000"
     y="24.569719"
     id="rect3411" /><g
     transform="translate(0,-80.176895)"
     clip-path="url(#clipPath3403)"
     id="g3413"><rect
       style="fill:#ffffff"
       height="6.1999998"
       width="299.79999"
       y="668.40002"
       x="646.20001"
       id="rect3415" /><rect
       style="fill:#ffffff"
       height="6.1999998"
       width="299.79999"
       y="668.40002"
       x="54"
       id="rect3417" /><g
       id="g3419"><path
         style="fill:#ffffff"
         inkscape:connector-curvature="0"
         d="m 387,704.8 -0.4,-13 c 5.6,-5.4 10.4,-9.8 14.4,-13.6 4,-3.8 7.2,-7 10,-9.8 2.8,-3 4.6,-5.4 5.8,-8 1.2,-2.2 1.8,-4.8 1.8,-7.6 0,-2.8 -0.8,-5 -2.8,-6.8 -2,-1.8 -4.4,-2.8 -7.2,-2.8 -2.8,0 -5.8,0.6 -8.8,2 -3,1.2 -5.4,3 -7.8,5 l -5.6,-13.4 c 3.2,-2.6 6.8,-4.6 11.2,-6.2 4.4,-1.6 9,-2.6 14,-2.6 4.2,0 7.8,0.6 10.8,1.6 3.2,1 5.6,2.8 8,4.6 2,1.8 3.8,4.4 4.8,6.8 1,2.8 1.6,5.4 1.6,8.6 0,3.2 -0.6,6.2 -1.8,9.2 -1.2,3 -3.2,6 -5.6,9 -2.6,3.2 -5.6,6.2 -9.4,9.6 -3.8,3.4 -8.2,7.2 -13.2,11.4 l 31.4,0 0.4,15 -51.8,0 0.2,1 0,0 z"
         id="path3421" /><path
         style="fill:#ffffff"
         inkscape:connector-curvature="0"
         d="m 500.4,667.6 c 0,12.6 -2.2,22 -7,29 -4.8,7 -11.6,10.2 -20.6,10.2 -9,0 -15.8,-3.4 -20.2,-10 -4.4,-6.6 -6.6,-16.2 -6.6,-28.8 0,-12.6 2.2,-22.2 7,-29 4.8,-6.6 11.4,-10.2 20.4,-10.2 9,0 15.8,3.4 20.2,10 4.8,6.6 6.8,16.2 6.8,28.8 z m -16.6,0.4 c 0,-5 -0.2,-9.4 -0.8,-12.8 -0.6,-3.4 -1.2,-6 -2.2,-8 -1,-1.8 -2,-3.4 -3.4,-4.2 -1.2,-0.8 -2.8,-1.2 -4.2,-1.2 -1.4,0 -2.8,0.4 -4,1.2 -1.2,0.8 -2.2,2 -3.4,4.2 -0.8,1.8 -1.6,4.6 -2.2,8 -0.6,3.4 -0.8,7.6 -0.8,12.6 0,5 0.2,9 0.8,12.2 0.6,3.4 1.4,5.8 2.2,8 1,1.8 2,3.4 3.4,4.2 1.2,0.8 2.8,1.2 4.2,1.2 1.4,0 2.8,-0.4 4,-1.2 1.2,-0.8 2.2,-2 3.4,-4 0.8,-1.8 1.6,-4.6 2,-7.8 0.8,-3.6 1,-7.4 1,-12.4 z"
         id="path3423" /><path
         style="fill:#ffffff"
         inkscape:connector-curvature="0"
         d="m 525.8,648.2 -17,3.6 -0.4,-15.4 36,-7.2 0,75.8 -18.6,0 0,-56.8 0,0 z"
         id="path3425" /><path
         style="fill:#ffffff"
         inkscape:connector-curvature="0"
         d="m 558.6,673.6 c 0,-5.6 1,-10.8 3,-16 1.8,-5 4.8,-9.6 8.6,-13.8 3.8,-4.2 8.4,-7.6 13.8,-10.2 5.4,-2.8 11.4,-4.8 18.4,-5.8 l 4,13.4 c -7.8,1.4 -14.4,4 -19.8,7.8 -5.4,3.8 -8.8,8.6 -10.4,14.4 l 0.4,0.4 c 2.2,-1.8 5,-3.6 7.8,-4.8 3,-1.4 5.8,-2 9.4,-2 3,0 5.4,0.6 8,1.6 2.6,1 4.6,2.6 6.4,4.6 1.8,1.8 3.4,4.4 4.4,7 1,2.8 1.6,6 1.6,9.6 0,3.8 -0.6,7.2 -1.8,10.6 -1.2,3.4 -3,6.2 -5.2,8.8 -2.2,2.6 -5.2,4.4 -8.6,5.8 -3.4,1.4 -7.2,2 -11.6,2 -4.4,0 -8.4,-0.8 -11.8,-2.6 -3.4,-1.8 -6.4,-4 -8.8,-6.8 -2.4,-2.8 -4.2,-6.4 -5.4,-10.4 -1.8,-4.4 -2.4,-8.8 -2.4,-13.6 z m 17.2,5.4 c 0,1.8 0.2,3.8 0.6,5.4 0.4,1.6 1,3.4 2,4.6 0.8,1.2 2,2.2 3.6,3.2 1.4,0.8 3,1.2 4.8,1.2 3,0 5.4,-1 7.2,-3.4 1.8,-2.4 2.8,-5.2 2.8,-9.2 0,-3.6 -0.8,-6.2 -2.8,-8.2 -1.8,-2 -4.2,-3 -7.2,-3 -2,0 -4.2,0.4 -6,1.4 -1.8,0.8 -3.4,1.8 -4.4,3 -0.4,1.6 -0.6,3.2 -0.6,5 z"
         id="path3427" /></g></g><path
     transform="translate(0,-80.176895)"
     style="fill:#ea504e"
     inkscape:connector-curvature="0"
     clip-path="url(#clipPath3399)"
     d="m 1000,596.8 c 0,0 -3.8,-0.8 -10.6,-2.2 -3.6,-0.8 -7.8,-1.4 -12.8,-2.6 -5,-0.8 -10.8,-1.8 -17.2,-3 -13,-2.2 -28.8,-4.2 -46.8,-6.2 -18,-2 -38.8,-3.8 -61,-5 -22.2,-1.2 -46.6,-2 -72.2,-2.8 -13,-0.2 -26,-0.2 -39.6,-0.2 -13.6,0 -27.2,0.2 -41.2,0.4 -28,0.6 -56.8,1.4 -86.2,3.2 -29.4,1.4 -59.2,3.4 -89,5.6 -15,1.2 -29.8,2.6 -44.6,3.8 -14.8,1.2 -29.6,2.8 -44.4,4.2 -7.2,0.8 -14.6,1.4 -21.8,2.2 -7.2,0.8 -14.4,1.4 -21.6,2.2 -7.2,0.8 -14.4,1.6 -21.4,2.6 -7,0.8 -14.2,1.6 -21.2,2.2 -28.2,2.8 -55.4,4.8 -81.2,5.6 -13,0.4 -25.6,0.8 -37.8,0.8 -12.2,0.2 -24,0 -35.2,-0.2 -22.8,-0.6 -43.4,-2 -61.6,-4 -18.4,-2.2 -34.4,-4.8 -47.2,-8.2 -6.4,-1.6 -12.2,-3.4 -17.2,-5 -5,-1.6 -9.2,-3.6 -12.4,-5 -3.4,-1.6 -5.8,-3 -7.2,-4 -1.6,-1 -2.6,-1.6 -2.6,-1.6 0,0 0.8,0.4 2.8,1 1.6,0.6 4.4,1.4 7.8,2.6 3.4,0.8 7.8,1.8 12.8,2.4 5,0.8 10.8,1.4 17.2,2 6.4,0.4 13.8,0.8 21.4,1 8,0.2 16.2,0.2 25.4,0.2 18.2,-0.2 38.8,-1 61,-2.2 11.2,-0.6 22.8,-1.4 34.8,-2.6 12,-1 24.6,-2 37.2,-3.2 25.6,-2.2 52.6,-5.2 80.4,-8.6 14,-1.6 28.2,-3.4 42.6,-5.2 14.4,-1.6 29.2,-3.4 43.8,-4.6 14.8,-1.4 29.6,-2.8 44.6,-4 15,-1.2 30,-2.2 45,-3.2 30,-1.8 60.2,-3.2 89.8,-3.8 29.6,-0.6 58.8,-0.6 87,0 14.2,0.4 28,0.8 41.6,1.4 13.6,0.6 26.8,1.4 39.8,2.6 25.8,1.8 50.2,4.4 72.8,7.2 22.6,3.2 43,6.4 61,10 18.2,3.6 33.8,7.2 46.6,10.8 6.4,1.6 12,3.6 17,5 5,1.6 9.2,3 12.6,4 5.4,3.2 9,4.4 9,4.4 z"
     id="path3429" /><g
     transform="translate(0,-80.176895)"
     clip-path="url(#clipPath3395)"
     id="g3431"><path
       style="fill:#ffffff"
       inkscape:connector-curvature="0"
       d="m 230.6,470.4 c 0,-28.6 -16,-44.8 -49.4,-49.6 27.8,-6 41,-21 41,-45 0,-35.8 -22.2,-50.2 -78.2,-50.2 l -90,0 0,22.6 15.4,0 c 4.4,0 5.8,2 5.8,8.4 l 0,137.2 c 0,6.2 -1.4,8.8 -5.8,8.8 l -15.4,0 0,22.6 89.8,0 c 60.6,0 86.8,-16.4 86.8,-54.8 z m -113,-122.2 25.4,0 c 26,0 35.2,8.4 35.2,32.8 0,23 -12,32.6 -37,32.6 l -23.6,0 0,-65.4 z m 0,84.8 30,0 c 26.2,0 38,9.6 38,35.4 0,25 -10.8,34.2 -39.8,34.2 l -28.2,0 c 0,0 0,-69.6 0,-69.6 z"
       id="path3433" /><path
       style="fill:#ffffff"
       inkscape:connector-curvature="0"
       d="m 388.2,445 c 0,-53 -26.2,-84.6 -73.8,-84.6 l 0,0 0,0 c -46.2,0 -78.2,34.2 -78.2,84.2 l 0,0 c 0,1.4 0,2.7 0.1,4.1 0,0.4 0,0.9 0.1,1.3 0,0.9 0.1,1.9 0.1,2.8 0,0.5 0.1,1 0.1,1.5 0.1,0.9 0.1,1.8 0.2,2.7 0,0.5 0.1,0.9 0.1,1.4 0.1,1.1 0.3,2.3 0.4,3.4 0,0.2 0.1,0.4 0.1,0.6 0.2,1.2 0.4,2.4 0.6,3.6 0.1,0.4 0.2,0.9 0.3,1.3 0.2,0.8 0.3,1.6 0.5,2.4 0.1,0.5 0.2,0.9 0.3,1.4 0.2,0.8 0.4,1.6 0.6,2.4 0.1,0.4 0.2,0.8 0.3,1.2 0.3,1.1 0.6,2.2 1,3.2 0,0.1 0.1,0.2 0.1,0.3 0.4,1.2 0.8,2.3 1.2,3.5 0.1,0.3 0.2,0.5 0.3,0.8 0.3,0.9 0.7,1.8 1.1,2.7 0.1,0.3 0.2,0.6 0.4,0.8 0.4,0.9 0.8,1.8 1.3,2.7 0.1,0.2 0.2,0.3 0.2,0.5 8.3,16.8 22.2,29.3 41.6,35.6 l 0.7,0.1 c 7.2,2.3 15.3,3.7 24,4.1 l 0.9,0.1 c 1.8,0 3.8,0.2 5.6,0.2 11.3,0 21,-1.7 29.4,-4.8 20.6,-7.4 32.6,-23 38.4,-41.2 L 362.6,472 c -0.9,2.4 -1.8,4.7 -2.9,6.9 -1.1,2.2 -2.2,4.2 -3.4,6.1 -0.6,0.9 -1.3,1.9 -1.9,2.7 -0.7,0.9 -1.4,1.7 -2.1,2.5 -0.4,0.4 -0.7,0.8 -1.1,1.2 -2.2,2.3 -4.7,4.3 -7.5,5.9 -0.5,0.3 -0.9,0.5 -1.4,0.8 -0.9,0.5 -1.9,1 -2.9,1.4 -2,0.8 -4.2,1.5 -6.4,2.1 -1.1,0.3 -2.3,0.5 -3.5,0.7 -1.2,0.2 -2.4,0.3 -3.7,0.4 -1.3,0.1 -2.6,0.1 -3.9,0.1 -17.6,0 -29.6,-7.7 -36.4,-20.8 -1,-2 -1.9,-4 -2.7,-6.2 -0.3,-0.7 -0.5,-1.5 -0.7,-2.2 -0.5,-1.5 -0.9,-3.1 -1.3,-4.7 -0.2,-0.8 -0.4,-1.6 -0.5,-2.4 -0.8,-4.1 -1.3,-8.5 -1.4,-13.2 l 109.4,0 0,0 0,0 0,-8.3 -0.1,0 z m -41.6,-14 -68,0 c 2,-31.4 14.4,-45 36.2,-45 21.8,0 31.2,12.6 31.8,45 z"
       id="path3435" /><path
       style="fill:#ffffff"
       inkscape:connector-curvature="0"
       d="m 412,399.4 0,92.2 c 0,7.6 -1.8,8.6 -5.2,8.6 l -13.6,0 0,25 80,0 0,-24.6 -14.6,0 c -3.4,0 -5.2,-1 -5.2,-8.6 l 0,-50.4 c 0,-33.6 10.4,-53.6 30.8,-53.6 4.6,0 8.2,1.2 10.2,3.4 -9.2,3 -14.8,12 -14.8,21 0,11.8 9.6,21.6 21,21.6 17.8,0 29.4,-13.8 29.4,-34.6 0,-23.8 -14,-38.8 -36,-38.8 -18,0 -33.8,10.6 -40.8,36.2 l 0,-35.2 c -7,1.6 -21,3.4 -36,3.4 l -25,0 0,24.6 14.6,0 c 4,0 5.2,1.8 5.2,9.8 z"
       id="path3437" /><path
       style="fill:#ffffff"
       inkscape:connector-curvature="0"
       d="m 535,390.2 9.8,0 c 4,0 5.2,1.8 5.2,9.8 l 0,92 c 0,7.6 -1.8,8.6 -5.2,8.6 l -13.6,0 0,24.6 78.4,0 0,-24.6 -12,0 c -3.4,0 -5.2,-1 -5.2,-8.6 l 0,-50 c 0,-35.8 12,-52.2 32.8,-52.2 17,0 24.8,9.6 24.8,31.8 l 0,70.4 c 0,7.6 -1.8,8.6 -5.2,8.6 l -12,0 0,24.6 77.2,0 0,-24.6 -13.6,0 c -3.4,0 -5.2,-1 -5.2,-8.6 l 0,-71.4 c 0,-40 -17,-59.8 -48.8,-59.8 -24.2,0 -41.4,10.8 -51,33 l 0,-31.8 c -6.8,1.6 -20.6,3.4 -35.8,3.4 l -35.2,0 c 8.2,3.8 13.8,18.2 14.6,24.8 z"
       id="path3439" /><polygon
       style="fill:#ffffff"
       points="779,315.6 754.6,315.6 746.8,291.6 739.4,315.6 715,315.6 734.8,330.4 727,354.4 746.8,339.6 766.6,354.4 759.2,330.4 "
       id="polygon3441" /><path
       style="fill:#ffffff"
       inkscape:connector-curvature="0"
       d="m 728.8,500.6 -14,0 0,24.6 79,0 0,-25 -13,0 c -3.4,0 -5,-1.6 -5,-8.6 l 0,-130 c -7,1.6 -21,3.4 -36,3.4 l -24.8,0 0,24.6 12,0 c 5.2,0 6.8,3 6.8,13.2 l 0,89.2 c 0,6.8 -1.4,8.6 -5,8.6 z"
       id="path3443" /><path
       style="fill:#ffffff"
       inkscape:connector-curvature="0"
       d="m 946.2,445.2 c 0,-53 -26.2,-84.6 -73.8,-84.6 l 0,0 0,0 c -46.2,0 -78.2,34.2 -78.2,84.2 l 0,0 c 0,1.4 0,2.7 0.1,4.1 0,0.4 0,0.9 0.1,1.3 0,0.9 0.1,1.9 0.1,2.8 0,0.5 0.1,1 0.1,1.5 0.1,0.9 0.1,1.8 0.2,2.7 0,0.5 0.1,0.9 0.1,1.4 0.1,1.1 0.3,2.3 0.4,3.4 0,0.2 0.1,0.4 0.1,0.6 0.2,1.2 0.4,2.4 0.6,3.6 0.1,0.4 0.2,0.9 0.3,1.3 0.2,0.8 0.3,1.6 0.5,2.4 0.1,0.5 0.2,0.9 0.3,1.4 0.2,0.8 0.4,1.6 0.6,2.4 0.1,0.4 0.2,0.8 0.3,1.2 0.3,1.1 0.6,2.2 1,3.2 0,0.1 0.1,0.2 0.1,0.3 0.4,1.2 0.8,2.3 1.2,3.5 0.1,0.3 0.2,0.5 0.3,0.8 0.3,0.9 0.7,1.8 1.1,2.7 0.1,0.3 0.2,0.6 0.4,0.8 0.4,0.9 0.8,1.8 1.3,2.7 0.1,0.2 0.2,0.3 0.2,0.5 8.3,16.8 22.2,29.3 41.6,35.6 l 0.7,0.1 c 7.2,2.3 15.3,3.7 24,4.1 l 0.9,0.1 c 1.8,0 3.8,0.2 5.6,0.2 11.3,0 21,-1.7 29.4,-4.8 20.6,-7.4 32.6,-23 38.4,-41.2 l -23.6,-11.2 c -0.9,2.4 -1.8,4.7 -2.9,6.9 -1.1,2.2 -2.2,4.2 -3.4,6.1 -0.6,0.9 -1.3,1.9 -1.9,2.7 -0.7,0.9 -1.4,1.7 -2.1,2.5 -0.4,0.4 -0.7,0.8 -1.1,1.2 -2.2,2.3 -4.7,4.3 -7.5,5.9 -0.5,0.3 -0.9,0.5 -1.4,0.8 -0.9,0.5 -1.9,1 -2.9,1.4 -2,0.8 -4.2,1.5 -6.4,2.1 -1.1,0.3 -2.3,0.5 -3.5,0.7 -1.2,0.2 -2.4,0.3 -3.7,0.4 -1.3,0.1 -2.6,0.1 -3.9,0.1 -17.6,0 -29.6,-7.7 -36.4,-20.8 -1,-2 -1.9,-4 -2.7,-6.2 -0.3,-0.7 -0.5,-1.5 -0.7,-2.2 -0.5,-1.5 -0.9,-3.1 -1.3,-4.7 -0.2,-0.8 -0.4,-1.6 -0.5,-2.4 -0.8,-4.1 -1.3,-8.5 -1.4,-13.2 l 109.4,0 0,0 0,0 -0.1,-8.4 0,0 z m -41.6,-14 -68,0 c 2,-31.4 14.4,-45 36.2,-45 21.8,0 31.2,12.6 31.8,45 z"
       id="path3445" /></g><path
     transform="translate(0,-80.176895)"
     style="fill:#ffffff"
     inkscape:connector-curvature="0"
     clip-path="url(#clipPath3391)"
     d="m 393.2,520.4 c -2.2,0.2 -4.6,0.4 -6.8,0.6 -14.2,1.4 -28.4,3 -42.2,4.6 m 288.6,-16.4 c -7.8,0 -15.6,0 -23.2,0 l -78.4,1.8 c -18.6,0.6 -37,1.6 -55.8,3 -0.8,0 -1.4,0.2 -2.2,0.2 0,0 -69.2,3.8 -157.8,14.8 -5.2,0.6 -10.2,1.2 -15.4,1.8 -14,1.6 -27.6,3.2 -41,4.6 -13.4,1.4 -26.4,2.8 -39.4,3.8 -25.6,2 -49.8,4.2 -72,5 -11.2,0.4 -21.8,1 -32,1.2 -10.2,0.2 -19.6,0.6 -28.8,0.6 -9.2,0 -17.6,-0.2 -25.4,-0.4 -8,-0.4 -15,-0.8 -21.4,-1.4 C 27,543 16.8,540.8 10.2,539 6.8,538 4.2,537.2 2.4,536.2 0.8,535.8 0,535.4 0,535.4 c 0,0 0.8,0.6 2.6,1.4 1.6,1 4.2,2.2 7.6,3.8 3.4,1.6 7.4,3.2 12.6,4.8 5.2,1.6 10.6,3.2 17.2,4.6 13,3 29,5.2 47.2,7.2 18.4,1.6 39,3 61.6,3.2 22.6,0.2 47,0 73,-1.2 26,-1.2 53,-3.2 81,-6 14.2,-1.4 28.4,-3.2 42.6,-4.8 7,-0.8 14.4,-1.6 21.6,-2.2 7.2,-0.8 14.6,-1.4 21.8,-2.2 29.4,-3 59.2,-5.6 88.8,-8 29.8,-2.2 59.6,-4.4 89,-5.6 29.4,-1.4 58.4,-2.2 86.2,-2.8 27.8,-0.6 55,-0.2 80.6,0.2 25.6,0.4 50,1.4 72.2,3.2 22.2,1.4 43,3.4 61,5.4 18.2,2 34,4.4 46.8,6.6 6.4,1 12.2,2.2 17.2,3.2 5,1 9.2,1.8 12.8,2.8 6.8,1.6 10.6,2.6 10.6,2.6 0,0 -4,-2 -10.6,-4.4 -3.4,-1 -7.6,-2.2 -12.6,-3.8 -5,-1.4 -10.6,-3.2 -17,-4.6 -11.8,-3.2 -39.2,-9.4 -37.4,-9.4 l -31.2,-4.6 C 833,523 820,521 806,519.2 c -4,-0.4 -8.2,-1 -12.2,-1.4 0,0 -34.3,-4.4 -79,-6.2 -1.4,0 -3.2,-0.2 -4.8,-0.2"
     id="path3447" /><text
     clip-path="url(#clipPath3383)"
     transform="matrix(0.95554801,0,0,1.0465199,0,-80.176895)"
     sodipodi:linespacing="125%"
     id="text3449"
     y="266.61905"
     x="199.37631"
     style="font-style:normal;font-variant:normal;font-weight:bold;font-stretch:normal;font-size:242.20587158px;line-height:125%;font-family:Jubilat;-inkscape-font-specification:'Jubilat Bold';letter-spacing:17.35807037px;word-spacing:0px;fill:#ffffff;fill-opacity:1;stroke:none;stroke-width:1px;stroke-linecap:butt;stroke-linejoin:miter;stroke-opacity:1"
     xml:space="preserve"><tspan
       y="266.61905"
       x="199.37631"
       id="tspan3451"
       sodipodi:role="line">Elect</tspan></text>
</svg>